<svg xmlns="http://www.w3.org/2000/svg" viewBox="0 0 512 512" width="100%" height="100%">
  <rect width="512" height="512" rx="112" fill="#0A2A5E"/>
  <circle cx="256" cy="256" r="216" fill="#FFFFFF" opacity="0.06"/>
  <!-- Geometric Stylized 'D' and Job Portal Monogram -->
  <path d="M148 136 C148 122.7 158.7 112 172 112 L276 C354 112 404 162 404 256 C404 350 354 400 276 400 L172 400 C158.7 400 148 389.3 148 376 Z" fill="#FFFFFF"/>
  <!-- Inner Cutout forming modern tech D -->
  <path d="M216 184 L268 C312 184 340 212 340 256 C340 300 312 328 268 328 L216 328 Z" fill="#0A2A5E"/>
  <!-- Job Badge Motif inside -->
  <rect x="236" y="232" width="48" height="36" rx="6" fill="#FFFFFF"/>
  <path d="M248 232 V222 C248 217.6 251.6 214 256 214 C260.4 214 264 217.6 264 222 V232" stroke="#FFFFFF" stroke-width="4" fill="none"/>
  <circle cx="260" cy="250" r="4" fill="#0A2A5E"/>
</svg>
